<svg width="556.36982421875px" height="122px" xmlns="http://www.w3.org/2000/svg" viewBox="-28.184912109374977 14 556.36982421875 122" style="background: rgba(0, 0, 0, 0);" preserveAspectRatio="xMidYMid"><defs><filter id="editing-jagged" x="-100%" y="-100%" width="300%" height="300%"><feTurbulence result="turb" baseFrequency="0.1" numOctaves="1" seed="1"></feTurbulence><feDisplacementMap in="SourceGraphic" in2="turb" scale="10"></feDisplacementMap></filter></defs><g filter="url(#editing-jagged)"><g transform="translate(54.50542938709259, 104.44000053405762)"><path d="M26.05-29.57L26.05-29.57L26.05-29.57Q27.01-31.49 27.01-33.28L27.01-33.28L27.01-33.28Q27.01-35.07 26.82-36.06L26.82-36.06L26.82-36.06Q26.62-37.06 26.18-37.82L26.18-37.82L26.18-37.82Q25.22-39.49 23.30-39.49L23.30-39.49L23.30-39.49Q20.93-39.49 19.01-37.76L19.01-37.76L19.01-37.76Q16.96-35.97 16.96-33.15L16.96-33.15L16.96-33.15Q16.96-31.36 18.21-29.98L18.21-29.98L18.21-29.98Q19.46-28.61 21.38-27.33L21.38-27.33L21.38-27.33Q23.30-26.05 25.47-24.77L25.47-24.77L25.47-24.77Q27.65-23.49 29.57-21.95L29.57-21.95L29.57-21.95Q33.98-18.43 33.98-13.70L33.98-13.70L33.98-13.70Q33.98-10.50 32.29-7.78L32.29-7.78L32.29-7.78Q30.59-5.06 27.78-3.07L27.78-3.07L27.78-3.07Q21.63 1.28 13.50 1.28L13.50 1.28L13.50 1.28Q6.91 1.28 3.52-0.86L3.52-0.86L3.52-0.86Q0.13-3.01 0.13-6.27L0.13-6.27L0.13-6.27Q0.13-12.10 4.67-13.57L4.67-13.57L4.67-13.57Q5.95-14.02 7.90-14.02L7.90-14.02L7.90-14.02Q9.86-14.02 12.10-13.18L12.10-13.18L12.10-13.18Q11.07-10.56 11.07-8.19L11.07-8.19L11.07-8.19Q11.07-3.07 14.72-3.07L14.72-3.07L14.72-3.07Q17.09-3.07 19.04-4.80L19.04-4.80L19.04-4.80Q20.99-6.53 20.99-8.48L20.99-8.48L20.99-8.48Q20.99-10.43 19.74-11.84L19.74-11.84L19.74-11.84Q18.50-13.25 16.64-14.37L16.64-14.37L16.64-14.37Q14.78-15.49 12.64-16.58L12.64-16.58L12.64-16.58Q10.50-17.66 8.64-19.20L8.64-19.20L8.64-19.20Q4.29-22.72 4.29-28.35L4.29-28.35L4.29-28.35Q4.29-32 6.08-34.85L6.08-34.85L6.08-34.85Q7.87-37.70 10.75-39.62L10.75-39.62L10.75-39.62Q16.51-43.52 23.58-43.52L23.58-43.52L23.58-43.52Q30.66-43.52 34.08-41.41L34.08-41.41L34.08-41.41Q37.50-39.30 37.50-35.71L37.50-35.71L37.50-35.71Q37.50-32.58 35.07-30.59L35.07-30.59L35.07-30.59Q32.96-28.93 30.40-28.93L30.40-28.93L30.40-28.93Q27.84-28.93 26.05-29.57ZM52.80 1.28L52.80 1.28L52.80 1.28Q38.72 1.28 38.72-11.97L38.72-11.97L38.72-11.97Q38.72-21.38 43.90-27.46L43.90-27.46L43.90-27.46Q49.41-33.92 58.94-33.92L58.94-33.92L58.94-33.92Q65.86-33.92 69.38-30.72L69.38-30.72L69.38-30.72Q72.90-27.52 72.90-20.80L72.90-20.80L72.90-20.80Q72.90-10.56 67.39-4.61L67.39-4.61L67.39-4.61Q62.02 1.28 52.80 1.28ZM54.46-26.56L54.46-26.56L54.46-26.56Q53.70-24.83 53.09-22.24L53.09-22.24L53.09-22.24Q52.48-19.65 51.71-15.55L51.71-15.55L51.71-15.55Q50.94-11.46 50.94-6.40L50.94-6.40L50.94-6.40Q50.94-4.74 51.49-3.65L51.49-3.65L51.49-3.65Q52.03-2.56 53.50-2.56L53.50-2.56L53.50-2.56Q54.98-2.56 55.90-3.26L55.90-3.26L55.90-3.26Q56.83-3.97 57.54-5.63L57.54-5.63L57.54-5.63Q58.82-8.58 59.84-14.05L59.84-14.05L59.84-14.05Q60.86-19.52 60.96-21.89L60.96-21.89L60.96-21.89Q61.06-24.26 61.06-26.02L61.06-26.02L61.06-26.02Q61.06-27.78 60.54-28.93L60.54-28.93L60.54-28.93Q60.03-30.08 58.59-30.08L58.59-30.08L58.59-30.08Q57.15-30.08 56.19-29.18L56.19-29.18L56.19-29.18Q55.23-28.29 54.46-26.56ZM97.22-2.69L97.22-2.69L97.22-2.69Q94.14 1.28 86.53 1.28L86.53 1.28L86.53 1.28Q82.56 1.28 79.68-1.12L79.68-1.12L79.68-1.12Q76.80-3.52 76.80-6.98L76.80-6.98L76.80-6.98Q76.80-8.90 76.99-9.86L76.99-9.86L81.28-32.64L94.27-33.92L89.60-9.22L89.60-9.22Q89.34-7.81 89.34-6.98L89.34-6.98L89.34-6.98Q89.34-3.26 91.58-3.26L91.58-3.26L91.58-3.26Q94.08-3.26 95.87-6.66L95.87-6.66L95.87-6.66Q96.45-7.74 96.70-9.15L96.70-9.15L101.25-32.64L113.86-33.92L109.12-8.96L109.12-8.96Q108.93-8 108.93-6.98L108.93-6.98L108.93-6.98Q108.93-5.95 109.50-4.83L109.50-4.83L109.50-4.83Q110.08-3.71 111.94-3.46L111.94-3.46L111.94-3.46Q111.55-1.92 110.21-0.90L110.21-0.90L110.21-0.90Q107.39 1.28 104.35 1.28L104.35 1.28L104.35 1.28Q101.31 1.28 99.52 0.19L99.52 0.19L99.52 0.19Q97.73-0.90 97.22-2.69ZM144.38 1.28L144.38 1.28L144.38 1.28Q136.64 1.28 136.64-4.74L136.64-4.74L136.64-4.74Q136.70-6.40 137.22-9.22L137.22-9.22L138.37-15.10L138.37-15.10Q140.10-23.42 140.10-25.28L140.10-25.28L140.10-25.28Q140.10-28.99 137.92-28.99L137.92-28.99L137.92-28.99Q134.27-28.99 132.35-19.46L132.35-19.46L128.58 0L115.71 1.28L122.37-32.70L132.86-33.92L131.84-27.65L131.84-27.65Q134.85-33.92 144.06-33.92L144.06-33.92L144.06-33.92Q148.54-33.92 150.43-32.03L150.43-32.03L150.43-32.03Q152.32-30.14 152.32-25.92L152.32-25.92L152.32-25.92Q152.32-21.95 150.27-12.67L150.27-12.67L150.27-12.67Q149.31-8.51 149.31-6.94L149.31-6.94L149.31-6.94Q149.31-5.38 150.18-4.48L150.18-4.48L150.18-4.48Q151.04-3.58 152.32-3.46L152.32-3.46L152.32-3.46Q151.68-1.28 149.47 0L149.47 0L149.47 0Q147.26 1.28 144.38 1.28ZM177.60-33.92L177.60-33.92L177.60-33.92Q179.90-33.92 181.70-33.41L181.70-33.41L181.70-33.41Q181.76-33.66 181.89-34.37L181.89-34.37L182.21-36.35L182.21-36.35Q182.46-37.63 182.85-39.74L182.85-39.74L183.87-44.80L196.61-46.08L189.50-8.96L189.50-8.96Q189.44-8.58 189.44-7.94L189.44-7.94L189.44-6.91L189.44-6.91Q189.44-5.50 190.14-4.45L190.14-4.45L190.14-4.45Q190.85-3.39 192-3.39L192-3.39L192-3.39Q190.72-0.38 186.82 0.90L186.82 0.90L186.82 0.90Q185.47 1.28 183.58 1.28L183.58 1.28L183.58 1.28Q181.70 1.28 179.97 0.29L179.97 0.29L179.97 0.29Q178.24-0.70 177.73-2.37L177.73-2.37L177.73-2.37Q176.70-0.70 174.66 0.29L174.66 0.29L174.66 0.29Q172.61 1.28 169.63 1.28L169.63 1.28L169.63 1.28Q166.66 1.28 164.19 0.51L164.19 0.51L164.19 0.51Q161.73-0.26 160.19-1.92L160.19-1.92L160.19-1.92Q157.38-5.18 157.38-12.61L157.38-12.61L157.38-12.61Q157.38-22.21 163.01-28.03L163.01-28.03L163.01-28.03Q168.64-33.92 177.60-33.92ZM177.15-30.08L177.15-30.08L177.15-30.08Q174.78-30.08 173.50-27.52L173.50-27.52L173.50-27.52Q172.22-24.96 170.91-18.62L170.91-18.62L170.91-18.62Q169.60-12.29 169.60-6.59L169.60-6.59L169.60-6.59Q169.60-2.69 171.90-2.69L171.90-2.69L171.90-2.69Q173.95-2.69 175.39-4.74L175.39-4.74L175.39-4.74Q176.83-6.78 177.41-10.18L177.41-10.18L180.86-28.93L180.86-28.93Q179.52-30.08 177.15-30.08ZM222.40-29.57L222.40-29.57L222.40-29.57Q223.36-31.49 223.36-33.28L223.36-33.28L223.36-33.28Q223.36-35.07 223.17-36.06L223.17-36.06L223.17-36.06Q222.98-37.06 222.53-37.82L222.53-37.82L222.53-37.82Q221.57-39.49 219.65-39.49L219.65-39.49L219.65-39.49Q217.28-39.49 215.36-37.76L215.36-37.76L215.36-37.76Q213.31-35.97 213.31-33.15L213.31-33.15L213.31-33.15Q213.31-31.36 214.56-29.98L214.56-29.98L214.56-29.98Q215.81-28.61 217.73-27.33L217.73-27.33L217.73-27.33Q219.65-26.05 221.82-24.77L221.82-24.77L221.82-24.77Q224-23.49 225.92-21.95L225.92-21.95L225.92-21.95Q230.34-18.43 230.34-13.70L230.34-13.70L230.34-13.70Q230.34-10.50 228.64-7.78L228.64-7.78L228.64-7.78Q226.94-5.06 224.13-3.07L224.13-3.07L224.13-3.07Q217.98 1.28 209.86 1.28L209.86 1.28L209.86 1.28Q203.26 1.28 199.87-0.86L199.87-0.86L199.87-0.86Q196.48-3.01 196.48-6.27L196.48-6.27L196.48-6.27Q196.48-12.10 201.02-13.57L201.02-13.57L201.02-13.57Q202.30-14.02 204.26-14.02L204.26-14.02L204.26-14.02Q206.21-14.02 208.45-13.18L208.45-13.18L208.45-13.18Q207.42-10.56 207.42-8.19L207.42-8.19L207.42-8.19Q207.42-3.07 211.07-3.07L211.07-3.07L211.07-3.07Q213.44-3.07 215.39-4.80L215.39-4.80L215.39-4.80Q217.34-6.53 217.34-8.48L217.34-8.48L217.34-8.48Q217.34-10.43 216.10-11.84L216.10-11.84L216.10-11.84Q214.85-13.25 212.99-14.37L212.99-14.37L212.99-14.37Q211.14-15.49 208.99-16.58L208.99-16.58L208.99-16.58Q206.85-17.66 204.99-19.20L204.99-19.20L204.99-19.20Q200.64-22.72 200.64-28.35L200.64-28.35L200.64-28.35Q200.64-32 202.43-34.85L202.43-34.85L202.43-34.85Q204.22-37.70 207.10-39.62L207.10-39.62L207.10-39.62Q212.86-43.52 219.94-43.52L219.94-43.52L219.94-43.52Q227.01-43.52 230.43-41.41L230.43-41.41L230.43-41.41Q233.86-39.30 233.86-35.71L233.86-35.71L233.86-35.71Q233.86-32.58 231.42-30.59L231.42-30.59L231.42-30.59Q229.31-28.93 226.75-28.93L226.75-28.93L226.75-28.93Q224.19-28.93 222.40-29.57ZM266.62-26.62L266.62-26.62L266.62-26.62Q266.62-23.94 264.38-22.27L264.38-22.27L264.38-22.27Q262.14-20.61 258.50-20.61L258.50-20.61L258.50-20.61Q256.96-20.61 256.06-21.06L256.06-21.06L256.06-21.06Q256.77-22.72 256.99-24.80L256.99-24.80L256.99-24.80Q257.22-26.88 257.22-27.46L257.22-27.46L257.22-27.46Q257.22-30.14 255.36-30.14L255.36-30.14L255.36-30.14Q254.08-30.14 252.64-28.54L252.64-28.54L252.64-28.54Q251.20-26.94 249.98-24.45L249.98-24.45L249.98-24.45Q247.30-18.69 247.30-12.86L247.30-12.86L247.30-12.86Q247.30-9.66 248.51-8.22L248.51-8.22L248.51-8.22Q249.73-6.78 252.42-6.78L252.42-6.78L252.42-6.78Q256.13-6.78 259.07-9.86L259.07-9.86L259.07-9.86Q259.90-10.82 260.35-11.90L260.35-11.90L260.35-11.90Q262.78-10.62 262.78-7.10L262.78-7.10L262.78-7.10Q262.78-3.52 258.82-1.15L258.82-1.15L258.82-1.15Q254.72 1.28 248.19 1.28L248.19 1.28L248.19 1.28Q235.20 1.28 235.20-12.48L235.20-12.48L235.20-12.48Q235.20-22.53 240.90-28.29L240.90-28.29L240.90-28.29Q246.40-33.92 256.51-33.92L256.51-33.92L256.51-33.92Q266.62-33.92 266.62-26.62ZM288.90-2.69L288.90-2.69L288.90-2.69Q285.82 1.28 278.21 1.28L278.21 1.28L278.21 1.28Q274.24 1.28 271.36-1.12L271.36-1.12L271.36-1.12Q268.48-3.52 268.48-6.98L268.48-6.98L268.48-6.98Q268.48-8.90 268.67-9.86L268.67-9.86L272.96-32.64L285.95-33.92L281.28-9.22L281.28-9.22Q281.02-7.81 281.02-6.98L281.02-6.98L281.02-6.98Q281.02-3.26 283.26-3.26L283.26-3.26L283.26-3.26Q285.76-3.26 287.55-6.66L287.55-6.66L287.55-6.66Q288.13-7.74 288.38-9.15L288.38-9.15L292.93-32.64L305.54-33.92L300.80-8.96L300.80-8.96Q300.61-8 300.61-6.98L300.61-6.98L300.61-6.98Q300.61-5.95 301.18-4.83L301.18-4.83L301.18-4.83Q301.76-3.71 303.62-3.46L303.62-3.46L303.62-3.46Q303.23-1.92 301.89-0.90L301.89-0.90L301.89-0.90Q299.07 1.28 296.03 1.28L296.03 1.28L296.03 1.28Q292.99 1.28 291.20 0.19L291.20 0.19L291.20 0.19Q289.41-0.90 288.90-2.69ZM324.29-3.52L324.29-3.52L324.29-3.52Q322.30 1.28 315.97 1.28L315.97 1.28L315.97 1.28Q312.77 1.28 310.72-0.96L310.72-0.96L310.72-0.96Q309.06-2.82 309.06-4.93L309.06-4.93L309.06-4.93Q309.06-9.73 311.30-20.22L311.30-20.22L315.97-44.80L328.96-46.08L322.75-13.70L322.75-13.70Q321.66-8.96 321.66-7.30L321.66-7.30L321.66-7.30Q321.66-3.65 324.29-3.52ZM359.55-4.38L359.55-4.38L359.55-4.38Q356.86-1.66 353.18-0.19L353.18-0.19L353.18-0.19Q349.50 1.28 345.86 1.28L345.86 1.28L345.86 1.28Q342.21 1.28 340.93 0.64L340.93 0.64L338.94 11.52L325.95 12.80L334.78-32.64L345.22-33.73L344.38-29.31L344.38-29.31Q347.07-33.86 352.64-33.86L352.64-33.86L352.64-33.86Q358.91-33.86 362.24-29.82L362.24-29.82L362.24-29.82Q365.18-26.18 365.18-20.61L365.18-20.61L365.18-20.61Q365.18-15.04 363.71-11.07L363.71-11.07L363.71-11.07Q362.24-7.10 359.55-4.38ZM345.09-22.34L341.70-3.58L341.70-3.58Q343.04-2.43 344.70-2.43L344.70-2.43L344.70-2.43Q346.37-2.43 347.33-3.07L347.33-3.07L347.33-3.07Q348.29-3.71 348.99-4.99L348.99-4.99L348.99-4.99Q350.91-8.45 352.45-18.94L352.45-18.94L352.45-18.94Q352.90-22.02 352.90-25.02L352.90-25.02L352.90-25.02Q352.90-28.03 352.22-28.99L352.22-28.99L352.22-28.99Q351.55-29.95 350.27-29.95L350.27-29.95L350.27-29.95Q346.37-29.95 345.09-22.34L345.09-22.34ZM370.05-6.40L370.05-6.40L370.05-6.40Q370.05-8.13 370.94-12.48L370.94-12.48L374.34-29.76L370.56-29.76L370.82-31.68L370.82-31.68Q378.50-33.98 385.92-39.62L385.92-39.62L388.99-39.62L387.46-32.64L392.45-32.64L391.87-29.76L386.94-29.76L383.68-12.48L383.68-12.48Q382.85-8.51 382.85-7.17L382.85-7.17L382.85-7.17Q382.85-4.10 385.54-3.46L385.54-3.46L385.54-3.46Q384.90-1.28 382.59 0L382.59 0L382.59 0Q380.29 1.28 377.02 1.28L377.02 1.28L377.02 1.28Q373.76 1.28 371.90-0.77L371.90-0.77L371.90-0.77Q370.05-2.82 370.05-6.40Z" fill="#444"></path></g></g><style>text {
  font-size: 64px;
  font-family: Arial Black;
  dominant-baseline: central;
  text-anchor: middle;
}</style></svg>